<svg xmlns="http://www.w3.org/2000/svg" xmlns:xlink="http://www.w3.org/1999/xlink" viewBox="0 0 538.28 219.06"><defs><style>.cls-1{fill:#1e1e1e;}.cls-2{fill:url(#Gradiente_sem_nome_20);}</style><linearGradient id="Gradiente_sem_nome_20" x1="24.84" y1="10.9" x2="145.86" y2="151.84" gradientUnits="userSpaceOnUse"><stop offset="0" stop-color="#29c6e2"/><stop offset="1" stop-color="#0077c7"/></linearGradient></defs><title>Ativo 26</title><g id="Camada_2" data-name="Camada 2"><g id="Camada_1-2" data-name="Camada 1"><path class="cls-1" d="M277.12,135.18v25.71h45V179h-45v35.44H254.6v-97.3h73.54v18.07Z"/><path class="cls-1" d="M339.26,117.11h22.52v97.3H339.26Z"/><path class="cls-1" d="M380.69,117.11h22.52v79H452v18.35H380.69Z"/><path class="cls-1" d="M535.82,196.34v18.07H460.48v-97.3H534v18.07H482.86v21.13H528v17.51H482.86v22.52Z"/><path class="cls-1" d="M315.49,10.44a32.3,32.3,0,0,1,14.2,11.85,32.67,32.67,0,0,1,5,18.18,32.74,32.74,0,0,1-5,18.11,31.78,31.78,0,0,1-14.2,11.85q-9.24,4.11-21.75,4.11h-19v26H252.94V6.27h40.8Q306.27,6.27,315.49,10.44Zm-8,42.08q5.11-4.25,5.12-12.05t-5.12-12.19Q302.36,24,292.53,24H274.75V56.76h17.78Q302.36,56.76,307.47,52.52Z"/><path class="cls-1" d="M406.18,100.53,388,74.27H367.93v26.26H346.12V6.27h40.8q12.52,0,21.75,4.17a32.32,32.32,0,0,1,14.21,11.85,32.67,32.67,0,0,1,5,18.18,32,32,0,0,1-5.05,18.11,32,32,0,0,1-14.34,11.65l21.14,30.3Zm-5.52-72.25q-5.13-4.25-15-4.24H367.93V56.9h17.78q9.82,0,15-4.31t5.11-12.12Q405.77,32.52,400.66,28.28Z"/><path class="cls-1" d="M460.24,95.81a47,47,0,0,1-18.45-17.43,47.67,47.67,0,0,1-6.66-25,47.62,47.62,0,0,1,6.66-25A47,47,0,0,1,460.24,11a58.32,58.32,0,0,1,52.85,0A47.19,47.19,0,0,1,538.28,53.4a47.16,47.16,0,0,1-25.19,42.41,58.32,58.32,0,0,1-52.85,0Zm41.54-16.09A27.52,27.52,0,0,0,512.35,69a31.47,31.47,0,0,0,3.84-15.62,31.42,31.42,0,0,0-3.84-15.62,27.55,27.55,0,0,0-10.57-10.71,31.53,31.53,0,0,0-30.16,0,27.55,27.55,0,0,0-10.57,10.71,31.42,31.42,0,0,0-3.84,15.62A31.47,31.47,0,0,0,461.05,69a27.52,27.52,0,0,0,10.57,10.7,31.53,31.53,0,0,0,30.16,0Z"/><circle class="cls-2" cx="109.53" cy="109.53" r="109.53"/></g></g></svg>